<mxfile host="app.diagrams.net" modified="2023-04-20T03:12:16.856Z" agent="Mozilla/5.0 (X11; Linux x86_64) AppleWebKit/537.36 (KHTML, like Gecko) Chrome/112.0.0.0 Safari/537.36 Edg/112.0.1722.48" version="21.1.9" etag="Wa6vzP5gE6dPJyA-qoK5" type="github">
  <diagram name="Page-1" id="GzVM6HaVCLexF_LODNWW">
    <mxGraphModel>
      <root>
        <mxCell id="0" />
        <mxCell id="1" parent="0" />
      </root>
    </mxGraphModel>
  </diagram>
</mxfile>
